<?xml version="1.0" encoding="utf-8"?>
<!-- Generator: Adobe Illustrator 19.2.1, SVG Export Plug-In . SVG Version: 6.00 Build 0)  -->
<svg version="1.1" xmlns="http://www.w3.org/2000/svg" xmlns:xlink="http://www.w3.org/1999/xlink" x="0px" y="0px"
	 viewBox="0 0 400 400" style="enable-background:new 0 0 400 400;" xml:space="preserve">
<style type="text/css">
	.st0{fill:#F4F7F8;}
	.st1{fill:#F4F7F8;stroke:#4AC8EF;stroke-width:7.538;stroke-linecap:round;stroke-linejoin:round;stroke-miterlimit:10;}
	.st2{fill:#F4F7F8;stroke:#F16162;stroke-width:7.519;stroke-linecap:round;stroke-linejoin:round;stroke-miterlimit:10;}
	.st3{fill:#F16162;}
	.st4{fill:#F4F7F8;stroke:#79C367;stroke-width:7.5285;stroke-linecap:round;stroke-linejoin:round;stroke-miterlimit:10;}
</style>
<g id="Layer_1">
	<g>
		<circle class="st0" cx="200.3" cy="200.7" r="198.5"/>
		<path class="st1" d="M276.3,295.2v12.7H145.7c-12.5,0-22.6-10.1-22.6-22.6v-14V112.6v-1.4c0-9.7,7.9-17.6,17.6-17.6h136.8v185.3
			h-136c0,0,0.1,16.3,16.5,16.3"/>
		<line class="st1" x1="157.6" y1="143.6" x2="243.1" y2="143.6"/>
		<line class="st1" x1="168.1" y1="159.1" x2="232.6" y2="159.1"/>
		<line class="st1" x1="177.1" y1="174.6" x2="223.6" y2="174.6"/>
	</g>
</g>
<g id="Layer_2">
	<g>
		<circle class="st0" cx="200.3" cy="200.7" r="198"/>
		<polygon class="st2" points="173.4,275 259.5,144.4 222.7,120.2 136.2,251.5 151.7,248.3 154.1,262.8 168.6,259.4 		"/>
		<polyline class="st2" points="164.6,284.9 123.6,310.7 131.1,262.8 		"/>
		<path class="st2" d="M231.5,109.4L242,93.5c1.9-2.9,5.7-3.6,8.6-1.8l23.7,15.6c2.9,1.9,3.6,5.7,1.8,8.6l-10.5,15.9"/>
		<line class="st2" x1="168.6" y1="259.4" x2="240.9" y2="149.7"/>
		<line class="st2" x1="151.7" y1="248.3" x2="209.2" y2="161.1"/>
		<polygon class="st3" points="145,299.7 126,287.2 123.6,310.7 		"/>
	</g>
</g>
<g id="Layer_3">
	<g>
		<circle class="st0" cx="200.3" cy="200.7" r="198.2"/>
		<circle class="st4" cx="200.3" cy="200.7" r="116.7"/>
		<path class="st4" d="M109.9,131.1c0,0-2.5,26.3,13.8,31.4c16.3,5,30.1,18.8,23.8,28.9c-6.3,10-6.3,31.4,11.3,33.9
			s16.3,28.9-2.5,28.9s-27.6,36.4-27.6,36.4"/>
		<path class="st4" d="M241.7,94.7c0,0,5,38.9-8.8,48.9c-13.8,10,26.3,56.5-12.5,72.8s-21.3,28.9-8.8,31.4s51.4-6.3,48.9,23.8"/>
		<path class="st4" d="M290.5,128.9c0,0-17.5,39.8-18.7,51c-1.3,11.3,8.8,22.6,17.6,16.3c8.8-6.3,27.6,23.8,7.5,32.6"/>
	</g>
</g>
</svg>
